<svg id="Layer_1" enable-background="new 0 0 512 512" height="512" viewBox="0 0 512 512" width="512" xmlns="http://www.w3.org/2000/svg"><g><g><g fill="#ea9d57"><path d="m362.727 317.748c-4.276 0-7.742-3.466-7.742-7.742v-234.904c0-4.276 3.466-7.742 7.742-7.742s7.742 3.466 7.742 7.742v234.904c0 4.276-3.466 7.742-7.742 7.742z"/><path d="m305.485 317.748c-4.276 0-7.742-3.466-7.742-7.742v-234.904c0-4.276 3.466-7.742 7.742-7.742s7.742 3.466 7.742 7.742v234.904c0 4.276-3.466 7.742-7.742 7.742z"/><path d="m248.243 317.748c-4.276 0-7.742-3.466-7.742-7.742v-234.904c0-4.276 3.466-7.742 7.742-7.742s7.742 3.466 7.742 7.742v234.904c0 4.276-3.466 7.742-7.742 7.742z"/><path d="m149.229 305.274c-.494 0-.994-.047-1.497-.145-4.197-.823-6.932-4.891-6.109-9.087l42.822-218.45c.824-4.196 4.89-6.927 9.087-6.109 4.197.823 6.93 4.891 6.109 9.087l-42.822 218.45c-.725 3.694-3.963 6.254-7.59 6.254z"/></g><path d="m332.563 320.043c-3.858-11.245-14.524-19.328-27.078-19.328s-23.22 8.082-27.078 19.328c-1 2.914-.057 28.624 27.078 28.624s28.078-25.71 27.078-28.624z" fill="#ff5876"/><path d="m275.322 320.043c-3.858-11.245-14.524-19.328-27.078-19.328s-23.22 8.082-27.078 19.328c-1 2.914-.057 28.624 27.078 28.624s28.077-25.71 27.078-28.624z" fill="#ff5876"/><path d="m171.628 310.753c-3.858-11.245-14.524-19.328-27.078-19.328s-23.22 8.083-27.078 19.328c-1 2.914-.057 28.623 27.078 28.623 27.135.001 28.078-25.709 27.078-28.623z" fill="#ff5876"/><path d="m305.485 339.376c-12.553 0-23.212-8.086-27.07-19.33-1 2.914-1.551 6.037-1.551 9.29 0 15.807 12.814 28.621 28.621 28.621s28.621-12.814 28.621-28.621c0-3.253-.551-6.376-1.55-9.29-3.859 11.245-14.518 19.33-27.071 19.33z" fill="#e6485d"/><path d="m248.243 339.376c-12.553 0-23.212-8.086-27.07-19.33-1 2.914-1.55 6.037-1.55 9.29 0 15.807 12.814 28.621 28.621 28.621s28.621-12.814 28.621-28.621c0-3.253-.55-6.376-1.55-9.29-3.86 11.245-14.518 19.33-27.072 19.33z" fill="#e6485d"/><path d="m144.55 330.086c-12.553 0-23.212-8.086-27.07-19.33-1 2.914-1.55 6.037-1.55 9.29 0 15.807 12.814 28.621 28.621 28.621s28.621-12.814 28.621-28.621c0-3.253-.551-6.376-1.551-9.29-3.859 11.244-14.517 19.33-27.071 19.33z" fill="#e6485d"/><path d="m70.413 392.843v-292.967c0-8.538 6.946-15.484 15.484-15.484h340.207c8.538 0 15.484 6.946 15.484 15.484v292.967l15.484 9.29 15.484-9.29v-292.967c0-25.614-20.838-46.452-46.452-46.452h-340.207c-25.613 0-46.452 20.838-46.452 46.452v292.967l15.484 10.966z" fill="#e4eef9"/><g fill="#d5e0f2"><path d="m39.445 411.424 15.484 9.29 15.484-9.29v-18.581h-30.968z"/><path d="m441.588 411.424 15.484 9.29 15.484-9.29v-18.581h-30.968z"/></g><path d="m502.71 449.285h-493.42l-9.197-9.291c1.24-15.985 14.603-28.57 30.907-28.57h450c16.303 0 29.667 12.585 30.906 28.571z" fill="#ffbe7c"/><path d="m.104 439.995c-.063.802-.104 1.61-.104 2.428v10.991c0 2.85 2.311 5.161 5.161 5.161h501.677c2.85 0 5.161-2.311 5.161-5.161v-10.991c0-.818-.041-1.626-.103-2.428z" fill="#ea9d57"/><path d="m389.805 320.043c-3.858-11.245-14.525-19.328-27.078-19.328-12.554 0-23.22 8.082-27.078 19.328-1 2.914-.057 28.624 27.078 28.624s28.078-25.71 27.078-28.624z" fill="#ff5876"/><path d="m362.727 339.376c-12.553 0-23.212-8.086-27.07-19.33-1 2.914-1.551 6.037-1.551 9.29 0 15.807 12.814 28.621 28.621 28.621s28.621-12.814 28.621-28.621c0-3.253-.551-6.376-1.55-9.29-3.86 11.245-14.518 19.33-27.071 19.33z" fill="#e6485d"/></g></g></svg>