<svg id="Capa_1" enable-background="new 0 0 512 512" height="512" viewBox="0 0 512 512" width="512" xmlns="http://www.w3.org/2000/svg"><g><g><path clip-rule="evenodd" d="m488.325 295.375h-96.54v29.797c0 3.122-2.554 5.676-5.675 5.676h-13.848v166.437h111.409c2.554 0 4.654-2.043 4.654-4.512z" fill="#ffc269" fill-rule="evenodd"/></g><g><path clip-rule="evenodd" d="m500.3 272.928h-169.043v42.482h70.546 86.522 11.975c2.327 0 4.2-1.873 4.2-4.2v-34.082c0-2.299-1.873-4.2-4.2-4.2z" fill="#c8c5c9" fill-rule="evenodd"/></g><g><path clip-rule="evenodd" d="m341.274 217.193h-52.64v55.678 56.217h52.64v-56.217z" fill="#9fd4fe" fill-rule="evenodd"/></g><g><path clip-rule="evenodd" d="m313.294 14.716h-52.498c-2.639 0-4.796 2.157-4.796 4.796v42.567h.369 56.925c2.866 0 5.193-2.327 5.193-5.165v-37.034c0-2.837-2.327-5.164-5.193-5.164z" fill="#ff8086" fill-rule="evenodd"/></g><g><path clip-rule="evenodd" d="m345.956 350.882h-179.912v146.402h179.912z" fill="#ffe07d" fill-rule="evenodd"/></g><g><path clip-rule="evenodd" d="m455.294 388.511c0-2.582-2.128-4.711-4.711-4.711h-28.349c-2.582 0-4.711 2.128-4.711 4.711v53.124c0 2.582 2.128 4.711 4.711 4.711h28.349c2.582 0 4.711-2.128 4.711-4.711z" fill="#9fd4fe" fill-rule="evenodd"/></g><g><path clip-rule="evenodd" d="m422.234 406.673h28.349c2.582 0 4.711 2.128 4.711 4.739v-22.901c0-2.582-2.128-4.711-4.711-4.711h-28.349c-2.582 0-4.711 2.128-4.711 4.711v22.901c.001-2.61 2.129-4.739 4.711-4.739z" fill="#72bffc" fill-rule="evenodd"/></g><g><path clip-rule="evenodd" d="m120.215 295.375h-96.54v197.398c0 2.469 2.1 4.512 4.654 4.512h111.409v-166.438h-13.848c-3.122 0-5.675-2.554-5.675-5.676z" fill="#ffc269" fill-rule="evenodd"/></g><g><path clip-rule="evenodd" d="m129.721 350.882h36.323v146.402h-36.323z" fill="#eceaec" fill-rule="evenodd"/></g><g><path clip-rule="evenodd" d="m295.132 433.86c0-21.511-17.622-39.105-39.132-39.105s-39.132 17.594-39.132 39.105v63.425h78.265v-63.425z" fill="#9fd4fe" fill-rule="evenodd"/></g><g><path clip-rule="evenodd" d="m180.743 272.928h-169.072c-2.299 0-4.171 1.901-4.171 4.2v34.082c0 2.327 1.873 4.2 4.171 4.2h12.004 86.522 70.546z" fill="#c8c5c9" fill-rule="evenodd"/></g><g><path clip-rule="evenodd" d="m345.956 350.882h36.323v146.402h-36.323z" fill="#eceaec" fill-rule="evenodd"/></g><g><path clip-rule="evenodd" d="m23.675 315.409h86.522v27.669h-86.522z" fill="#ffa95f" fill-rule="evenodd"/></g><g><path clip-rule="evenodd" d="m401.803 315.409h86.522v27.669h-86.522z" fill="#ffa95f" fill-rule="evenodd"/></g><g><path clip-rule="evenodd" d="m223.366 217.193h-52.64v55.678 56.217h52.64v-56.217z" fill="#9fd4fe" fill-rule="evenodd"/></g><g><path clip-rule="evenodd" d="m256 217.193h-42.651v55.678 56.217h42.651v-56.217z" fill="#9fd4fe" fill-rule="evenodd"/></g><g><path clip-rule="evenodd" d="m298.651 217.193h-42.651l-4.881 50.797 4.881 61.098h42.651v-56.217z" fill="#9fd4fe" fill-rule="evenodd"/></g><g><path clip-rule="evenodd" d="m291.273 196.307h-70.546-50.001-16.601c-2.951 0-5.335 2.412-5.335 5.363v23.838c0 2.951 2.384 5.363 5.335 5.363h16.601 42.623 42.651 42.651 42.623 16.601c2.951 0 5.335-2.412 5.335-5.363v-23.838c0-2.951-2.384-5.363-5.335-5.363h-16.601z" fill="#ff8086" fill-rule="evenodd"/></g><g><path clip-rule="evenodd" d="m256 111.031c-47.106 0-85.274 38.197-85.274 85.276h50.001c22.702-17.651 30.704-54.06 35.273-85.276z" fill="#ffc269" fill-rule="evenodd"/></g><g><path clip-rule="evenodd" d="m341.274 196.307c0-47.079-38.167-85.276-85.274-85.276 2.384 16.828-4.455 77.273 35.273 85.276z" fill="#ffc269" fill-rule="evenodd"/></g><g><path clip-rule="evenodd" d="m291.273 196.307c0-47.079-15.806-85.276-35.273-85.276s-35.273 38.197-35.273 85.276z" fill="#ffe07d" fill-rule="evenodd"/></g><g><path clip-rule="evenodd" d="m129.721 350.882h36.323v24.49h-36.323z" fill="#dad8db" fill-rule="evenodd"/></g><g><path clip-rule="evenodd" d="m345.956 350.882h36.323v24.49h-36.323z" fill="#dad8db" fill-rule="evenodd"/></g><g><path clip-rule="evenodd" d="m216.868 456.761c0-21.511 17.622-39.133 39.132-39.133s39.132 17.623 39.132 39.133v-22.901c0-21.511-17.622-39.105-39.132-39.105s-39.132 17.594-39.132 39.105z" fill="#72bffc" fill-rule="evenodd"/></g><g><path clip-rule="evenodd" d="m89.766 383.801h-28.349c-2.582 0-4.711 2.128-4.711 4.711v53.124c0 2.582 2.128 4.711 4.711 4.711h28.349c2.582 0 4.711-2.128 4.711-4.711v-53.124c-.001-2.583-2.129-4.711-4.711-4.711z" fill="#9fd4fe" fill-rule="evenodd"/></g><g><path clip-rule="evenodd" d="m56.706 411.412c0-2.611 2.128-4.739 4.711-4.739h28.349c2.582 0 4.711 2.128 4.711 4.739v-22.901c0-2.582-2.128-4.711-4.711-4.711h-28.349c-2.582 0-4.711 2.128-4.711 4.711z" fill="#72bffc" fill-rule="evenodd"/></g><g><path clip-rule="evenodd" d="m170.726 315.409h-60.529v29.797c0 3.122 2.554 5.676 5.675 5.676h13.848 36.323 179.912 36.323 13.848c3.122 0 5.675-2.554 5.675-5.676v-29.797h-60.529-42.623-42.649-42.651z" fill="#ff8086" fill-rule="evenodd"/></g><g><path clip-rule="evenodd" d="m110.197 333.146h291.605v-17.736c-97.192 0-194.413 0-291.605 0z" fill="#f76672" fill-rule="evenodd"/></g><g><path clip-rule="evenodd" d="m170.726 230.871h170.548v19.269h-170.548z" fill="#72bffc" fill-rule="evenodd"/></g><g><path d="m422.234 453.846h28.349c6.733 0 12.211-5.478 12.211-12.211v-53.123c0-6.733-5.478-12.211-12.211-12.211h-28.349c-6.733 0-12.211 5.478-12.211 12.211v53.123c0 6.733 5.478 12.211 12.211 12.211zm2.789-62.545h22.771v47.545h-22.771z"/><path d="m500.3 265.428h-151.527v-27.057h9.101c7.077 0 12.835-5.771 12.835-12.863v-23.838c0-7.093-5.758-12.863-12.835-12.863h-9.405c-3.632-45.188-39.783-81.34-84.969-84.972v-34.257h49.794c6.999 0 12.692-5.681 12.692-12.664v-37.034c0-6.983-5.693-12.664-12.692-12.664h-52.498c-6.78 0-12.296 5.516-12.296 12.296v84.323c-45.187 3.633-81.337 39.784-84.969 84.972h-9.405c-7.077 0-12.835 5.771-12.835 12.863v23.838c0 7.093 5.758 12.863 12.835 12.863h9.101v27.057h-56.945c-4.143 0-7.5 3.357-7.5 7.5s3.357 7.5 7.5 7.5h56.945v27.481h-148.227v-27.481h56.633c4.143 0 7.5-3.357 7.5-7.5s-3.357-7.5-7.5-7.5h-59.961c-6.436 0-11.672 5.249-11.672 11.7v34.082c0 6.451 5.236 11.699 11.672 11.699h4.503v169.863c0 6.623 5.452 12.012 12.154 12.012h455.342c6.702 0 12.154-5.389 12.154-12.012v-169.863h4.475c6.451 0 11.7-5.248 11.7-11.699v-34.082c0-6.451-5.249-11.7-11.7-11.7zm-236.8-243.212h47.486v32.362h-47.486zm70.273 250.712v34.981h-27.622v-69.538h27.622zm-70.273 34.981v-69.538h27.651v69.538zm-42.651 0v-69.538h27.651v69.538zm112.566-119.102h-34.782c-.898-24.471-6.166-48.944-15.456-65.356 27.278 10.209 47.35 35.301 50.238 65.356zm-77.415-70.277c10.982 0 26.072 26.537 27.641 70.276h-55.281c1.568-43.739 16.658-70.276 27.64-70.276zm-27.177 4.92c-9.29 16.412-14.558 40.885-15.456 65.356h-34.782c2.888-30.054 22.96-55.146 50.238-65.356zm-72.532 80.357h199.418v19.564h-199.418zm21.936 69.121v-34.557h27.622v69.538h-27.622zm216.076 49.981v20.473h-119.489c-4.143 0-7.5 3.357-7.5 7.5s3.357 7.5 7.5 7.5h63.642v131.402h-35.824v-55.925c0-25.698-20.919-46.604-46.632-46.604s-46.632 20.906-46.632 46.604v55.925h-35.824v-131.402h66.054c4.143 0 7.5-3.357 7.5-7.5s-3.357-7.5-7.5-7.5h-121.9v-20.473zm-363.128 0h71.522v22.297c0 7.266 5.91 13.176 13.176 13.176h6.348v131.402h-91.046zm106.046 166.875v-131.402h21.323v131.402zm87.147 0v-55.925c0-17.427 14.19-31.604 31.632-31.604s31.632 14.178 31.632 31.604v55.925zm129.088 0v-131.402h21.323v131.402zm127.369 0h-91.046v-131.402h6.348c7.266 0 13.176-5.91 13.176-13.176v-22.297h71.522zm16.175-181.875h-148.227v-27.481h148.227z"/><path d="m89.766 376.301h-28.349c-6.733 0-12.211 5.478-12.211 12.211v53.123c0 6.733 5.478 12.211 12.211 12.211h28.349c6.733 0 12.211-5.478 12.211-12.211v-53.123c0-6.734-5.478-12.211-12.211-12.211zm-2.789 62.545h-22.771v-47.545h22.771z"/></g></g></svg>