<svg height="512" viewBox="0 0 64 64" width="512" xmlns="http://www.w3.org/2000/svg"><g id="classroom-student-desk-teacher-white_board" data-name="classroom-student-desk-teacher-white board"><path d="m5 7h54v29h-54z" fill="#5eac24"/><path d="m55 7h4v29h-4z" fill="#4e901e"/><rect fill="#ffc477" height="12" rx="4" width="10" x="44" y="13"/><path d="m54 17v4a4 4 0 0 1 -4 4h-2a3.657 3.657 0 0 1 -1-.13 3.992 3.992 0 0 0 3-3.87v-4a3.992 3.992 0 0 0 -3-3.87 3.657 3.657 0 0 1 1-.13h2a4 4 0 0 1 4 4z" fill="#ffa733"/><path d="m3 3h58v4h-58z" fill="#ff7956"/><path d="m3 36h56v4h-56z" fill="#ff7956"/><path d="m57 3h4v4h-4z" fill="#ff5023"/><path d="m59 29v11h-4v-4h-12v-5h-6l-8-6 3-3 7 5h2a2.006 2.006 0 0 1 2-2h12a4 4 0 0 1 4 4z" fill="#898890"/><path d="m59 29v11h-4v-11a4 4 0 0 0 -4-4h4a4 4 0 0 1 4 4z" fill="#57565c"/><path d="m43 40h12v20h-12z" fill="#a78966"/><path d="m51 40h4v20h-4z" fill="#806749"/><path d="m43 36h12v4h-12z" fill="#57565c"/><path d="m54 17-3 2-7-2a4 4 0 0 1 4-4h2a4 4 0 0 1 4 4z" fill="#ffd422"/><path d="m54 17-3 2-2.8-.8 1.8-1.2a3.992 3.992 0 0 0 -3-3.87 3.657 3.657 0 0 1 1-.13h2a4 4 0 0 1 4 4z" fill="#ebbf00"/><path d="m24 40-.5 4-.5 4h-2-10-2l-.5-4-.5-4h6 4z" fill="#a78966"/><path d="m23 52v4h-2-10-2v-4h2 10z" fill="#a78966"/><path d="m11 48h10v4h-10z" fill="#e0e0e2"/><path d="m20 36v2a2.006 2.006 0 0 1 -2 2h-4a2.006 2.006 0 0 1 -2-2v-4a2.006 2.006 0 0 1 2-2h4a2.006 2.006 0 0 1 2 2z" fill="#ffd422"/><path d="m3 44h26v4h-26z" fill="#806749"/><path d="m26 44h3v4h-3z" fill="#5f4d37"/><path d="m24 40-1 8h-4l1-8z" fill="#806749"/><path d="m20 34v4a2.006 2.006 0 0 1 -2 2h-4a2.006 2.006 0 0 0 2-2v-4a2.006 2.006 0 0 0 -2-2h4a2.006 2.006 0 0 1 2 2z" fill="#ebbf00"/><path d="m20 52h3v4h-3z" fill="#806749"/><path d="m61 2h-58a1 1 0 0 0 -1 1v4a1 1 0 0 0 1 1h1v27h-1a1 1 0 0 0 -1 1v4a1 1 0 0 0 1 1h4.12l.25 2h-4.37a1 1 0 0 0 -1 1v4a1 1 0 0 0 1 1h1v13h2v-13h4v2h-1a1 1 0 0 0 -1 1v4a1 1 0 0 0 1 1h1v5h2v-5h8v5h2v-5h1a1 1 0 0 0 1-1v-4a1 1 0 0 0 -1-1h-1v-2h4v13h2v-13h1a1 1 0 0 0 1-1v-4a1 1 0 0 0 -1-1h-4.37l.25-2h17.12v19a1 1 0 0 0 1 1h12a1 1 0 0 0 1-1v-19h3a1 1 0 0 0 1-1v-32h1a1 1 0 0 0 1-1v-4a1 1 0 0 0 -1-1zm-57 45v-2h3.62l.25 2zm0-8v-2h7v1a3 3 0 0 0 .18 1zm18 16h-12v-2h12zm-10-4v-2h8v2zm10.12-4h-12.24l-.75-6h13.74zm-9.12-9v-4a1 1 0 0 1 1-1h4a1 1 0 0 1 1 1v4a1 1 0 0 1 -1 1h-4a1 1 0 0 1 -1-1zm15 7v2h-3.87l.25-2zm14-6h-21.18a3 3 0 0 0 .18-1v-1h21zm12 20h-4v-16h-2v16h-4v-18h10zm0-20h-10v-2h10zm4 0h-2v-9h-2v5h-10v-4a1 1 0 0 0 -1-1h-5.67l-6.81-5.11 1.59-1.58 6.31 4.5a1 1 0 0 0 .58.19h2a1 1 0 0 0 1-1 1 1 0 0 1 1-1h12a3.009 3.009 0 0 1 3 3zm-7.27-19.04a.842.842 0 0 0 .27.04.967.967 0 0 0 .55-.17l1.45-.96v2.13a3.009 3.009 0 0 1 -3 3h-2a3.009 3.009 0 0 1 -3-3v-2.67zm-5.63-3.69a3 3 0 0 1 2.9-2.27h2a3 3 0 0 1 2.95 2.5l-2.12 1.41zm12.9 8.76a4.924 4.924 0 0 0 -3-1.03h-1.03a4.924 4.924 0 0 0 1.03-3v-4a5 5 0 0 0 -5-5h-2a5 5 0 0 0 -5 5v4a4.924 4.924 0 0 0 1.03 3h-1.03a3.014 3.014 0 0 0 -2.83 2h-.85l-6.74-4.81a1 1 0 0 0 -1.29.1l-.79.8-10.79-10.8-1.42 1.42 10.8 10.79-.8.79a1.03 1.03 0 0 0 -.29.78 1 1 0 0 0 .4.73l8 6a.984.984 0 0 0 .6.2h5v3h-21v-1a3.009 3.009 0 0 0 -3-3h-4a3.009 3.009 0 0 0 -3 3v1h-5v-27h52zm2-19.03h-56v-2h56z"/></g></svg>