<svg height="512" viewBox="0 0 64 64" width="512" xmlns="http://www.w3.org/2000/svg"><g id="classroom-student-desk-chair-white_board" data-name="classroom-student-desk-chair-white board"><path d="m3 44h26v4h-26z" fill="#806749"/><path d="m35 44h26v4h-26z" fill="#806749"/><path d="m58 44h3v4h-3z" fill="#5f4d37"/><path d="m26 44h3v4h-3z" fill="#5f4d37"/><path d="m3 3h58v4h-58z" fill="#ff7956"/><path d="m3 36h58v4h-58z" fill="#ff7956"/><path d="m57 3h4v4h-4z" fill="#ff5023"/><path d="m57 36h4v4h-4z" fill="#ff5023"/><path d="m5 7h54v29h-54z" fill="#5eac24"/><path d="m56 40-1 8h-14l-1-8z" fill="#a78966"/><path d="m56 40-1 8h-4l1-8z" fill="#806749"/><path d="m41 52h14v4h-14z" fill="#a78966"/><path d="m43 48h10v4h-10z" fill="#e0e0e2"/><rect fill="#ffd422" height="8" rx="2" width="8" x="44" y="32"/><path d="m52 34v4a2.006 2.006 0 0 1 -2 2h-4a2.006 2.006 0 0 0 2-2v-4a2.006 2.006 0 0 0 -2-2h4a2.006 2.006 0 0 1 2 2z" fill="#ebbf00"/><path d="m24 40-1 8h-14l-1-8z" fill="#a78966"/><path d="m9 52h14v4h-14z" fill="#a78966"/><path d="m11 48h10v4h-10z" fill="#e0e0e2"/><path d="m20 36v2a2.006 2.006 0 0 1 -2 2h-4a2.006 2.006 0 0 1 -2-2v-4a2.006 2.006 0 0 1 2-2h4a2.006 2.006 0 0 1 2 2z" fill="#ffd422"/><path d="m55 7h4v29h-4z" fill="#4e901e"/><path d="m20 34v4a2.006 2.006 0 0 1 -2 2h-4a2.006 2.006 0 0 0 2-2v-4a2.006 2.006 0 0 0 -2-2h4a2.006 2.006 0 0 1 2 2z" fill="#ebbf00"/><g fill="#806749"><path d="m24 40-1 8h-4l1-8z"/><path d="m52 52h3v4h-3z"/><path d="m20 52h3v4h-3z"/></g><path d="m61 8a1 1 0 0 0 1-1v-4a1 1 0 0 0 -1-1h-58a1 1 0 0 0 -1 1v4a1 1 0 0 0 1 1h1v27h-1a1 1 0 0 0 -1 1v4a1 1 0 0 0 1 1h4.12l.25 2h-4.37a1 1 0 0 0 -1 1v4a1 1 0 0 0 1 1h1v13h2v-13h4v2h-1a1 1 0 0 0 -1 1v4a1 1 0 0 0 1 1h1v5h2v-5h8v5h2v-5h1a1 1 0 0 0 1-1v-4a1 1 0 0 0 -1-1h-1v-2h4v13h2v-13h1a1 1 0 0 0 1-1v-4a1 1 0 0 0 -1-1h-4.37l.25-2h14.24l.25 2h-4.37a1 1 0 0 0 -1 1v4a1 1 0 0 0 1 1h1v13h2v-13h4v2h-1a1 1 0 0 0 -1 1v4a1 1 0 0 0 1 1h1v5h2v-5h8v5h2v-5h1a1 1 0 0 0 1-1v-4a1 1 0 0 0 -1-1h-1v-2h4v13h2v-13h1a1 1 0 0 0 1-1v-4a1 1 0 0 0 -1-1h-4.37l.25-2h4.12a1 1 0 0 0 1-1v-4a1 1 0 0 0 -1-1h-1v-27zm-57 39v-2h3.62l.25 2zm0-8v-2h7v1a3 3 0 0 0 .18 1zm46-8h-4a3.009 3.009 0 0 0 -3 3v1h-22v-1a3.009 3.009 0 0 0 -3-3h-4a3.009 3.009 0 0 0 -3 3v1h-5v-27h52v27h-5v-1a3.009 3.009 0 0 0 -3-3zm1 3v4a1 1 0 0 1 -1 1h-4a1 1 0 0 1 -1-1v-4a1 1 0 0 1 1-1h4a1 1 0 0 1 1 1zm-32 0v4a1 1 0 0 1 -1 1h-4a1 1 0 0 1 -1-1v-4a1 1 0 0 1 1-1h4a1 1 0 0 1 1 1zm3 21h-12v-2h12zm-10-4v-2h8v2zm10.12-4h-12.24l-.75-6h13.74zm5.88-2v2h-3.87l.25-2zm8 2v-2h3.62l.25 2zm-15.18-8a3 3 0 0 0 .18-1v-1h22v1a3 3 0 0 0 .18 1zm33.18 16h-12v-2h12zm-10-4v-2h8v2zm10.12-4h-12.24l-.75-6h13.74zm5.88-2v2h-3.87l.25-2zm0-6h-7.18a3 3 0 0 0 .18-1v-1h7zm-56-33v-2h56v2z"/></g></svg>