<?xml version="1.0" encoding="iso-8859-1"?>
<!-- Generator: Adobe Illustrator 19.0.0, SVG Export Plug-In . SVG Version: 6.00 Build 0)  -->
<svg version="1.1" id="Capa_1" xmlns="http://www.w3.org/2000/svg" xmlns:xlink="http://www.w3.org/1999/xlink" x="0px" y="0px"
	 viewBox="0 0 512 512" style="enable-background:new 0 0 512 512;" xml:space="preserve">
<path style="fill:#C8F5FF;" d="M305.492,14.982C193.352,37.887,108.985,137.091,108.985,256s84.367,218.113,196.508,241.018
	C417.633,474.113,502,374.909,502,256S417.633,37.887,305.492,14.982z"/>
<g>
	<path style="fill:#FFFFFF;" d="M314,305v-81.712c0-18.296-14.832-33.128-33.128-33.128h-49.744
		c-18.296,0-33.128,14.832-33.128,33.128V305H314z"/>
	<path style="fill:#FFFFFF;" d="M459.916,305v-81.712c0-18.296-14.832-33.128-33.128-33.128h-49.744
		c-18.296,0-33.128,14.832-33.128,33.128V305H459.916z"/>
</g>
<path style="fill:#A5DC69;" d="M134.955,190.16h-11.367c-18.296,0-33.128,14.832-33.128,33.128V305h77.623v-81.712
	C168.083,204.992,153.251,190.16,134.955,190.16z"/>
<path style="fill:#FF5A5A;" d="M426.788,190.16h-11.367c-18.296,0-33.128,14.832-33.128,33.128V305h77.623v-81.712
	C459.916,204.992,445.084,190.16,426.788,190.16z"/>
<path style="fill:#E6AA46;" d="M280.808,190.16h-11.367c-18.296,0-33.128,14.832-33.128,33.128V305h77.623v-81.712
	C313.936,204.992,299.104,190.16,280.808,190.16z"/>
<rect x="80.33" y="280" style="fill:#FFFFFF;" width="60" height="125.84"/>
<rect x="106" y="280" style="fill:#6E87F5;" width="34.33" height="125.84"/>
<rect x="226" y="280" style="fill:#FFFFFF;" width="60" height="125.84"/>
<rect x="251.67" y="280" style="fill:#6E87F5;" width="34.33" height="125.84"/>
<rect x="372.29" y="280" style="fill:#FFFFFF;" width="60" height="125.84"/>
<rect x="397.96" y="280" style="fill:#6E87F5;" width="34.33" height="125.84"/>
<g>
	<circle style="fill:#FFE6C3;" cx="110.46" cy="134.16" r="28"/>
	<circle style="fill:#FFE6C3;" cx="256.38" cy="134.16" r="28"/>
	<circle style="fill:#FFE6C3;" cx="402.29" cy="134.16" r="28"/>
</g>
<path d="M309.612,485.886C292.145,489.943,274.106,492,256,492c-68.523,0-130.309-29.365-173.463-76.16h57.796
	c5.523,0,10-4.478,10-10V248.007c0-5.523-4.477-10-10-10s-10,4.477-10,10V270h-40v-21.993c0-5.523-4.477-10-10-10s-10,4.477-10,10
	v153.522C38.817,361.407,20,310.86,20,256c0-72.954,32.956-140.661,90.417-185.759c4.345-3.41,5.103-9.696,1.693-14.041
	c-3.411-4.345-9.697-5.104-14.041-1.693c-29.866,23.441-54.563,53.746-71.419,87.64C8.966,177.704,0,216.01,0,256
	c0,68.38,26.629,132.667,74.981,181.02C123.333,485.371,187.62,512,256,512c19.627,0,39.188-2.231,58.137-6.633
	c5.38-1.249,8.728-6.623,7.479-12.002C320.366,487.984,314.99,484.644,309.612,485.886z M130.333,290v105.84h-10V322
	c0-5.522-4.477-10-10-10s-10,4.478-10,10v73.84h-10V290H130.333z"/>
<path d="M437.019,74.981C388.667,26.629,324.38,0,256,0c-24.956,0-49.624,3.585-73.319,10.656c-5.292,1.58-8.302,7.15-6.723,12.442
	c1.58,5.292,7.149,8.305,12.442,6.723C210.238,23.304,232.982,20,256,20c130.131,0,236,105.869,236,236
	c0,52.797-18.005,103.818-49.833,144.864V248.007c0-5.523-4.477-10-10-10s-10,4.477-10,10V270h-40v-21.993c0-5.523-4.477-10-10-10
	s-10,4.477-10,10V405.84c0,5.522,4.477,10,10,10h57.355c-10.02,10.92-21.099,20.966-33.178,29.915
	c-4.438,3.288-5.37,9.551-2.082,13.988c1.962,2.647,4.983,4.048,8.043,4.048c2.069,0,4.155-0.64,5.945-1.966
	c31.479-23.323,57.577-54.015,75.473-88.758C502.486,336.639,512,297.252,512,256C512,187.62,485.372,123.333,437.019,74.981z
	 M412.167,395.84V322c0-5.522-4.477-10-10-10s-10,4.478-10,10v73.84h-10V290h40v105.84H412.167z"/>
<path d="M148.46,134.16c0-20.953-17.047-38-38-38s-38,17.047-38,38s17.047,38,38,38S148.46,155.113,148.46,134.16z M92.46,134.16
	c0-9.925,8.075-18,18-18s18,8.075,18,18s-8.075,18-18,18S92.46,144.085,92.46,134.16z"/>
<path d="M168.083,315c5.523,0,10-4.478,10-10v-81.712c0-23.781-19.347-43.128-43.128-43.128H85.212
	c-23.781,0-43.128,19.347-43.128,43.128V305c0,5.522,4.477,10,10,10s10-4.478,10-10v-81.712c0-12.753,10.375-23.128,23.128-23.128
	h49.743c12.753,0,23.128,10.375,23.128,23.128V305C158.083,310.522,162.561,315,168.083,315z"/>
<path d="M294.377,134.16c0-20.953-17.047-38-38-38s-38,17.047-38,38s17.047,38,38,38S294.377,155.113,294.377,134.16z
	 M238.377,134.16c0-9.925,8.075-18,18-18s18,8.075,18,18s-8.075,18-18,18S238.377,144.085,238.377,134.16z"/>
<path d="M226.25,238.007c-5.523,0-10,4.477-10,10V405.84c0,5.522,4.477,10,10,10h60c5.523,0,10-4.478,10-10V248.007
	c0-5.523-4.477-10-10-10s-10,4.477-10,10V270h-40v-21.993C236.25,242.484,231.773,238.007,226.25,238.007z M276.25,290v105.84h-10
	V322c0-5.522-4.477-10-10-10s-10,4.478-10,10v73.84h-10V290H276.25z"/>
<path d="M280.872,180.16h-49.743c-23.781,0-43.128,19.347-43.128,43.128V305c0,5.522,4.477,10,10,10s10-4.478,10-10v-81.712
	c0-12.753,10.375-23.128,23.128-23.128h49.743c12.753,0,23.128,10.375,23.128,23.128V305c0,5.522,4.477,10,10,10s10-4.478,10-10
	v-81.712C324,199.507,304.653,180.16,280.872,180.16z"/>
<path d="M440.293,134.16c0-20.953-17.047-38-38-38s-38,17.047-38,38s17.047,38,38,38S440.293,155.113,440.293,134.16z
	 M384.293,134.16c0-9.925,8.075-18,18-18s18,8.075,18,18s-8.075,18-18,18S384.293,144.085,384.293,134.16z"/>
<path d="M353.917,223.288c0-12.753,10.375-23.128,23.128-23.128h49.743c12.753,0,23.128,10.375,23.128,23.128V305
	c0,5.522,4.477,10,10,10s10-4.478,10-10v-81.712c0-23.781-19.347-43.128-43.128-43.128h-49.743
	c-23.781,0-43.128,19.347-43.128,43.128V305c0,5.522,4.477,10,10,10s10-4.478,10-10V223.288z"/>
<path d="M140.33,48.84c2.63,0,5.21-1.07,7.07-2.93c1.87-1.86,2.93-4.44,2.93-7.07s-1.06-5.21-2.93-7.07
	c-1.86-1.86-4.43-2.93-7.07-2.93c-2.63,0-5.21,1.07-7.07,2.93s-2.93,4.44-2.93,7.07s1.07,5.21,2.93,7.07
	C135.12,47.77,137.7,48.84,140.33,48.84z"/>
<path d="M362.41,467.859c-2.64,0-5.21,1.07-7.07,2.931c-1.87,1.859-2.93,4.43-2.93,7.069c0,2.631,1.06,5.21,2.93,7.07
	c1.86,1.86,4.44,2.93,7.07,2.93s5.2-1.069,7.07-2.93c1.86-1.86,2.93-4.439,2.93-7.07c0-2.64-1.07-5.21-2.93-7.069
	C367.62,468.93,365.04,467.859,362.41,467.859z"/>
<g>
</g>
<g>
</g>
<g>
</g>
<g>
</g>
<g>
</g>
<g>
</g>
<g>
</g>
<g>
</g>
<g>
</g>
<g>
</g>
<g>
</g>
<g>
</g>
<g>
</g>
<g>
</g>
<g>
</g>
</svg>
