<svg id="Capa_1" enable-background="new 0 0 512 512" height="512" viewBox="0 0 512 512" width="512" xmlns="http://www.w3.org/2000/svg"><g><g><path d="m300.839 502h142.841c7.799-41.697 24.264-84.877 24.264-84.877h-423.889s16.465 43.18 24.264 84.877h143.349z" fill="#ff7d95"/></g><g><path d="m422.843 417.123h-333.686l2.917-83.565c2.04-37.358 26.17-70.343 61.932-81.325l49.781-14.775h12.322c9.464 12.042 23.318 18.071 37.172 18.071s27.708-6.029 37.164-18.071h16.918l48.112 14.775c35.761 10.982 61.561 43.966 63.601 81.325z" fill="#ffc135"/></g><g><path d="m252.381 350.834h-1.05c-12.066 0-21.847-9.781-21.847-21.847v-15.286c0-12.066 9.781-21.847 21.847-21.847h1.05c12.066 0 21.847 9.781 21.847 21.847v15.286c0 12.066-9.781 21.847-21.847 21.847z" fill="#838eb1"/></g><g><path d="m265.198 62.573s-18.383 33.166-47.804 33.166v-25.011s-39.278 3.262-51.517 30.448c0 0-11.311-91.176 86.376-91.176 98.244 0 89.215 85.195 89.215 85.195h-15.048c-12.904 0-24.947-6.126-32.872-16.31-6.347-8.156-15.825-16.312-28.35-16.312z" fill="#838eb1"/></g><g><path d="m327.409 95.199v27.654c-2.335 40.132-34.295 72.286-74.13 72.327-39.302 0-73.116-32.093-74.089-72.348h-.051v-35.375h.113c.051-.942.123-1.874.215-2.796 16.169-12.125 37.93-13.937 37.93-13.937v25.017c29.42 0 47.802-33.168 47.802-33.168 12.524 0 22.001 8.156 28.348 16.313 7.925 10.186 19.969 16.313 32.875 16.313z" fill="#ffdad5"/></g><g><path d="m290.444 237.458c-9.456 12.042-23.31 18.071-37.164 18.071s-27.708-6.029-37.172-18.071l7.462-48.473c9.093 3.987 19.142 6.194 29.71 6.194s20.608-2.207 29.701-6.194z" fill="#ffdad5"/></g><g><path d="m498.927 407.123h-66.524l-3.344-74.11c-2.28-41.758-30.673-78.062-70.65-90.34l-48.112-14.774c-.951-.292-1.94-.44-2.936-.44h-8.339l-5.104-33.16c24.493-14.023 43.491-42.609 43.491-71.446v-17.657h4.06c5.115 0 9.405-3.859 9.944-8.946.168-1.586 3.826-39.168-21.428-67.241-17.317-19.249-43.469-29.009-77.732-29.009-32.835 0-58.019 9.658-74.851 28.707-26.521 30.015-21.669 71.931-21.449 73.7.612 4.931 4.957 8.77 9.928 8.77 1.127 0 2.221-.211 3.259-.571v12.226c0 29.429 18.146 57.472 43.464 71.663l-5.074 32.963h-3.744c-.963 0-1.922.14-2.845.413l-49.872 14.802c-38.963 11.966-66.684 48.271-68.981 90.34-.003.065-.006.131-.009.196l-2.58 73.914h-66.426c-5.522 0-10 4.478-10 10s4.478 10 10 10h23.983c4.769 13.417 15.633 45.702 21.434 76.716.885 4.731 5.016 8.161 9.829 8.161h143.349c5.522 0 10-4.478 10-10s-4.478-10-10-10h-135.145c-5.367-25.478-13.229-50.191-18.268-64.877h395.487c-5.038 14.686-12.899 39.399-18.267 64.877h-134.635c-5.522 0-10 4.478-10 10s4.478 10 10 10h142.841c4.813 0 8.944-3.43 9.829-8.161 5.801-31.013 16.665-63.299 21.433-76.716h23.984c5.522 0 10-4.478 10-10s-4.478-10-10-10zm-306.537-365.173c12.87-14.565 33.01-21.95 59.863-21.95 28.261 0 49.369 7.484 62.737 22.245 12.835 14.173 15.925 32.299 16.546 42.95h-5.116c-9.717 0-18.822-4.538-24.979-12.451-10.269-13.195-22.801-20.171-36.242-20.171-3.636 0-6.984 1.973-8.747 5.152-6.121 11.089-17.006 22.043-29.055 26.26v-13.26c0-5.772-5.091-10.427-10.83-9.966-13.59 1.13-27.826 5.884-39.287 13.26 2.079-10.39 6.398-22.21 15.11-32.069zm-3.25 80.641c-.006-.259 0-32.413 0-32.413 6.108-3.729 12.82-6.042 18.255-7.449v13.01c0 5.432 4.568 10.002 10.002 10.002 26.828 0 45.307-21.707 52.817-32.469 5.354 1.508 10.529 5.442 15.44 11.754 7.821 10.05 19.189 17.133 31.754 19.376v17.019c0 16.888-7.02 32.293-19.66 44.986-11.729 11.779-27.799 18.755-44.468 18.772-34.142.001-63.316-28.467-64.14-62.588zm60.25 82.491c8.582.388 17.229-.499 25.534-2.708l4.928 32.011c-11.027 11.338-28.88 14.384-43.045 7.324-3.736-1.862-7.197-4.326-10.108-7.326l4.927-32.01c5.805 1.543 11.767 2.427 17.764 2.709zm2.991 135.752h-1.05c-6.532 0-11.847-5.314-11.847-11.847v-15.286c0-6.532 5.314-11.847 11.847-11.847h1.05c6.532 0 11.847 5.314 11.847 11.847v15.286c0 6.533-5.315 11.847-11.847 11.847zm122.887 66.289v-35.293c0-5.522-4.478-10-10-10s-10 4.478-10 10v35.293h-92.736v-47.957c12.597-4.249 21.696-16.167 21.696-30.178v-15.286c0-17.561-14.286-31.847-31.847-31.847h-1.05c-17.561 0-31.847 14.286-31.847 31.847v15.286c0 14.508 9.755 26.772 23.047 30.6v47.535h-83.745v-35.293c0-5.522-4.478-10-10-10s-10 4.478-10 10v35.293h-39.274l2.552-73.116c1.88-33.693 23.923-62.709 54.786-72.188l48.389-14.361h6.285c17.072 18.235 45.068 23.271 67.418 12.034 6.009-3.021 11.493-7.119 16.089-12.034h10.83l46.678 14.334c15.581 4.785 29.241 14.25 39.504 27.372 10.264 13.124 16.158 28.663 17.042 44.844l3.299 73.115z"/><path d="m265.229 498.18c-3.153-7.698-14.383-8.092-18.137-.714-3.808 7.483 3.375 16.384 11.496 14.188 5.728-1.549 8.931-7.975 6.641-13.474z"/><path d="m261.896 152.578c5.522 0 10-4.478 10-10s-4.478-10-10-10h-2.202l4.59-12.246c1.939-5.171-.682-10.935-5.854-12.873-5.171-1.939-10.935.682-12.873 5.854l-9.655 25.756c-1.151 3.07-.724 6.511 1.145 9.206s4.939 4.304 8.219 4.304h16.63z"/></g></g></svg>