<svg height="512" viewBox="0 0 512 512" width="512" xmlns="http://www.w3.org/2000/svg"><g id="filled_outline" data-name="filled outline"><path d="m232 32h48v56h-48z" fill="#ffb401"/><path d="m221.478 109.912 10.522 42.088h48l10.522-42.088z" fill="#ffb401"/><path d="m216 24h80a0 0 0 0 1 0 0v8a24 24 0 0 1 -24 24h-32a24 24 0 0 1 -24-24v-8a0 0 0 0 1 0 0z" fill="#ffcc4d"/><rect fill="#ffcc4d" height="32" rx="16" width="80" x="216" y="88"/><path d="m232 152h48v336h-48z" fill="#ffc431"/><path d="m232 288h-144l-64-56 64-56h144z" fill="#548aff"/><path d="m280 352h144l64-56-64-56h-144z" fill="#ef5e3b"/><path d="m232 432h-104l-64-56 64-56h104z" fill="#f78e00"/><path d="m18.73242 238.02051 64 56a7.99716 7.99716 0 0 0 5.26758 1.97949h136v16h-96a7.99716 7.99716 0 0 0 -5.26758 1.97949l-64 56a7.99889 7.99889 0 0 0 0 12.041l64 56a7.99716 7.99716 0 0 0 5.26758 1.97951h96v48a8.00039 8.00039 0 0 0 8 8h48a8.00039 8.00039 0 0 0 8-8v-128h136a7.99716 7.99716 0 0 0 5.26758-1.97949l64-56a7.99889 7.99889 0 0 0 0-12.041l-64-56a7.99716 7.99716 0 0 0 -5.26758-1.97951h-136v-79.0166l7.71729-30.86939a23.97674 23.97674 0 0 0 -7.71729-40.73779v-21.6814a32.01249 32.01249 0 0 0 16-27.69482v-8a8.00039 8.00039 0 0 0 -8-8h-80a8.00039 8.00039 0 0 0 -8 8v8a32.012 32.012 0 0 0 16 27.69482v21.6814a23.97674 23.97674 0 0 0 -7.71729 40.73779l7.71729 30.86939v15.0166h-136a7.99716 7.99716 0 0 0 -5.26758 1.97949l-64 56a7.99889 7.99889 0 0 0 0 12.041zm112.27344 185.97949-54.85742-48 54.85742-48h92.99414v96zm107.24023-280-4-16h43.50782l-4 16zm1.75391 336v-320h32v320zm180.99414-232 54.85742 48-54.85742 48h-132.99414v-96zm-132.99414-216a16.01833 16.01833 0 0 1 -16 16h-32a16.01833 16.01833 0 0 1 -16-16zm-16 32v16h-32v-16zm-40 32h48a8 8 0 0 1 0 16h-48a8 8 0 0 1 0-16zm-140.99414 88h132.99414v96h-132.99414l-54.85742-48z"/><path d="m104 224h16v16h-16z"/><path d="m136 224h48v16h-48z"/><path d="m360 288h48v16h-48z"/><path d="m320 288h24v16h-24z"/><path d="m136 368h16v16h-16z"/><path d="m168 368h32v16h-32z"/></g></svg>