<svg id="Capa_1" enable-background="new 0 0 512 512" height="512" viewBox="0 0 512 512" width="512" xmlns="http://www.w3.org/2000/svg"><circle cx="256" cy="256" fill="#f59393" r="248.5"/><path d="m395.801 50.538c27.154 39.831 43.038 87.959 43.038 139.801 0 137.243-111.257 248.5-248.5 248.5-51.842 0-99.971-15.884-139.801-43.038 44.731 65.614 120.062 108.699 205.462 108.699 137.243 0 248.5-111.257 248.5-248.5 0-85.4-43.085-160.731-108.699-205.462z" fill="#ec6161"/><circle cx="256" cy="256" fill="#daeaef" r="212.134"/><path d="m394.75 95.531c32.19 37.196 51.665 85.698 51.665 138.75 0 117.158-94.976 212.134-212.134 212.134-53.052 0-101.554-19.475-138.75-51.665 38.898 44.947 96.362 73.384 160.469 73.384 117.158 0 212.134-94.976 212.134-212.134 0-64.107-28.437-121.571-73.384-160.469z" fill="#a8d0d5"/><path d="m271.152 256h-30.305v-134.504c0-8.284 6.716-15 15-15h.305c8.284 0 15 6.716 15 15z" fill="#786e79"/><path d="m245.286 266.714 21.429-21.429 75.87 75.87c5.858 5.858 5.858 15.355 0 21.213l-.216.216c-5.858 5.858-15.355 5.858-21.213 0z" fill="#786e79"/><circle cx="256" cy="256" fill="#97e4f9" r="30.305"/><path d="m268.467 228.38c1.72 3.804 2.685 8.022 2.685 12.467 0 16.737-13.568 30.305-30.305 30.305-4.446 0-8.664-.965-12.467-2.685 4.755 10.516 15.329 17.837 27.62 17.837 16.737 0 30.305-13.568 30.305-30.305 0-12.29-7.322-22.864-17.838-27.619z" fill="#0acefa"/><path d="m437.02 74.98c-48.352-48.351-112.64-74.98-181.02-74.98-67.926 0-131.908 26.325-180.161 74.126-2.942 2.915-2.965 7.664-.05 10.606s7.664 2.965 10.606.05c45.426-44.999 105.66-69.782 169.605-69.782 132.888 0 241 108.112 241 241s-108.112 241-241 241-241-108.112-241-241c0-52.92 16.825-103.14 48.657-145.23 2.498-3.304 1.846-8.007-1.458-10.506-3.305-2.498-8.007-1.846-10.506 1.458-33.818 44.716-51.693 98.065-51.693 154.278 0 68.38 26.629 132.667 74.98 181.02 48.352 48.351 112.64 74.98 181.02 74.98s132.668-26.629 181.02-74.98c48.351-48.353 74.98-112.64 74.98-181.02s-26.629-132.667-74.98-181.02z"/><path d="m256 293.805c1.825 0 3.617-.137 5.374-.388l24.537 24.538c1.465 1.465 3.384 2.197 5.304 2.197 1.919 0 3.839-.732 5.304-2.197 2.929-2.929 2.929-7.678 0-10.606l-19.769-19.769c4.302-2.837 7.992-6.526 10.829-10.829l49.594 49.594c2.982 2.988 2.982 7.85.004 10.833-1.442 1.443-3.366 2.238-5.415 2.238s-3.972-.795-5.414-2.238l-5.07-5.071c-2.929-2.928-7.678-2.929-10.606 0-2.93 2.929-2.93 7.678-.001 10.607l5.07 5.071c4.276 4.276 9.967 6.631 16.021 6.631 6.056 0 11.746-2.355 16.026-6.636 8.816-8.832 8.816-23.202-.004-32.038l-54.368-54.368c.251-1.756.388-3.549.388-5.374 0-12.355-5.959-23.344-15.152-30.247v-25.289c0-4.142-3.357-7.5-7.5-7.5s-7.5 3.358-7.5 7.5v18.51c-2.472-.51-5.031-.779-7.652-.779s-5.18.269-7.652.779v-97.326c0-4.22 3.433-7.652 7.652-7.652 2.041 0 3.957.795 5.414 2.257 1.443 1.438 2.238 3.355 2.238 5.396v43.78c0 4.142 3.357 7.5 7.5 7.5s7.5-3.358 7.5-7.5v-43.78c0-6.057-2.361-11.747-6.632-16.002-4.274-4.288-9.964-6.65-16.021-6.65-12.49 0-22.652 10.162-22.652 22.652v104.104c-9.194 6.903-15.152 17.892-15.152 30.247 0 20.846 16.959 37.805 37.805 37.805zm0-60.61c12.574 0 22.805 10.23 22.805 22.805s-10.23 22.805-22.805 22.805-22.805-10.23-22.805-22.805 10.231-22.805 22.805-22.805z"/><path d="m100.695 411.305c41.483 41.484 96.639 64.33 155.305 64.33s113.821-22.846 155.305-64.33c41.483-41.483 64.329-96.638 64.329-155.305s-22.846-113.821-64.329-155.305c-41.484-41.484-96.639-64.329-155.305-64.329s-113.821 22.846-155.305 64.33c-41.483 41.483-64.329 96.637-64.329 155.304s22.846 113.821 64.329 155.305zm46.595-328.597 14.332 24.822c1.39 2.406 3.91 3.751 6.502 3.751 1.272 0 2.563-.325 3.743-1.006 3.587-2.071 4.816-6.658 2.745-10.245l-14.344-24.843c26.506-14.09 56.455-22.519 88.232-23.67v28.714c0 4.142 3.357 7.5 7.5 7.5s7.5-3.358 7.5-7.5v-28.713c31.777 1.151 61.727 9.579 88.232 23.67l-14.344 24.843c-2.071 3.587-.842 8.174 2.745 10.245 1.181.682 2.471 1.006 3.743 1.006 2.592 0 5.113-1.345 6.502-3.751l14.332-24.822c26.06 16.407 48.175 38.522 64.581 64.582l-24.822 14.331c-3.587 2.071-4.816 6.658-2.745 10.245 1.389 2.406 3.91 3.751 6.502 3.751 1.272 0 2.563-.324 3.743-1.006l24.843-14.343c14.09 26.506 22.518 56.455 23.669 88.232h-28.713c-4.143 0-7.5 3.358-7.5 7.5s3.357 7.5 7.5 7.5h28.713c-1.151 31.777-9.579 61.726-23.669 88.232l-24.843-14.343c-3.589-2.072-8.175-.842-10.245 2.745-2.071 3.587-.842 8.174 2.745 10.245l24.822 14.331c-16.406 26.06-38.521 48.175-64.581 64.582l-14.332-24.822c-2.071-3.587-6.659-4.815-10.245-2.745-3.587 2.071-4.816 6.658-2.745 10.245l14.344 24.843c-26.506 14.09-56.455 22.519-88.232 23.67v-28.714c0-4.142-3.357-7.5-7.5-7.5s-7.5 3.358-7.5 7.5v28.714c-31.777-1.151-61.727-9.579-88.232-23.67l14.344-24.843c2.071-3.587.842-8.174-2.745-10.245-3.587-2.072-8.176-.843-10.245 2.745l-14.332 24.822c-26.06-16.407-48.175-38.522-64.581-64.582l24.822-14.331c3.587-2.071 4.816-6.658 2.745-10.245-2.07-3.588-6.66-4.817-10.245-2.745l-24.843 14.343c-14.09-26.506-22.518-56.455-23.669-88.232h28.713c4.143 0 7.5-3.358 7.5-7.5s-3.357-7.5-7.5-7.5h-28.714c1.151-31.777 9.579-61.726 23.669-88.232l24.843 14.343c1.182.682 2.471 1.006 3.743 1.006 2.592 0 5.113-1.346 6.502-3.751 2.071-3.587.842-8.174-2.745-10.245l-24.822-14.332c16.407-26.06 38.522-48.175 64.582-64.582z"/></svg>