<?xml version="1.0" encoding="iso-8859-1"?>
<!-- Generator: Adobe Illustrator 19.0.0, SVG Export Plug-In . SVG Version: 6.00 Build 0)  -->
<svg version="1.1" id="Capa_1" xmlns="http://www.w3.org/2000/svg" xmlns:xlink="http://www.w3.org/1999/xlink" x="0px" y="0px"
	 viewBox="0 0 512 512" style="enable-background:new 0 0 512 512;" xml:space="preserve">
<g>
	<path style="fill:#ED584F;" d="M47.487,424.469V502h39.986v-77.531c-5.478,4.367-12.427,6.986-19.993,6.986
		C59.912,431.455,52.964,428.836,47.487,424.469z"/>
	<path style="fill:#ED584F;" d="M423.36,424.469V502h39.986v-77.531c-5.477,4.367-12.425,6.986-19.993,6.986
		C435.787,431.455,428.838,428.836,423.36,424.469z"/>
</g>
<path style="fill:#F5921E;" d="M10,11.651v120.267h142.951V11.651H10z"/>
<rect x="50.923" y="51.32" style="fill:#00ACED;" width="61.1" height="39.757"/>
<path style="fill:#F8C31C;" d="M10,172.841v150.085h142.951V172.841H10z"/>
<rect x="50.923" y="212.51" style="fill:#CAC1B9;" width="61.1" height="69.58"/>
<path style="fill:#F8C31C;" d="M361.989,203.175v122.267h121.962V203.175H361.989z"/>
<rect x="402.48" y="243.43" style="fill:#75706B;" width="40.989" height="41.757"/>
<path style="fill:#F5921E;" d="M195.937,203.565v150.267h121.96V203.565H195.937z"/>
<rect x="236.42" y="243.23" style="fill:#69C9ED;" width="40.987" height="69.76"/>
<path style="fill:#9B4C14;" d="M196.436,10v153.398H502V10H196.436z"/>
<rect x="239.42" y="52.32" style="fill:#EDEDED;" width="219.42" height="68.753"/>
<g>
	<ellipse style="fill:#F8C31C;" cx="67.48" cy="399.65" rx="31.99" ry="31.806"/>
	<ellipse style="fill:#F8C31C;" cx="443.35" cy="399.65" rx="31.989" ry="31.806"/>
</g>
<g>
	<path style="fill:#231F20;" d="M150,492c-5.51,0-10,4.49-10,10s4.49,10,10,10s10-4.49,10-10S155.51,492,150,492z"/>
	<path style="fill:#231F20;" d="M501.94,492h-28.555v-63.137c7.406-7.542,11.984-17.853,11.984-29.214
		c0-23.052-18.822-41.806-41.957-41.806c-20.861,0-38.209,15.251-41.418,35.149c-59.65,40.25-127.094,52.354-200.555,35.937
		c-46.365-10.362-80.971-29.501-92.146-36.202c-3.321-19.768-20.604-34.885-41.371-34.885c-23.135,0-41.957,18.754-41.957,41.806
		c0,11.361,4.578,21.672,11.984,29.214V492H10c-5.51,0-10,4.49-10,10s4.49,10,10,10h100c5.51,0,10-4.49,10-10s-4.49-10-10-10H97.895
		v-63.137c3.98-4.054,7.139-8.909,9.213-14.297c16.621,9.176,48.372,24.486,89.246,33.719c22.504,5.083,44.797,7.63,66.633,7.63
		c12.463,0,24.777-0.83,36.895-2.492c36.935-5.066,72.055-17.902,104.607-38.199c2.072,5.125,5.133,9.75,8.951,13.639V492h-11.5
		c-5.51,0-10,4.49-10,10s4.49,10,10,10h100c5.52,0,10-4.49,10-10C511.94,496.49,507.46,492,501.94,492z M77.895,492H57.949v-51.749
		c3.197,0.78,6.535,1.203,9.973,1.203c3.436,0,6.773-0.423,9.973-1.203V492z M67.922,421.455c-12.107,0-21.957-9.782-21.957-21.806
		s9.85-21.806,21.957-21.806c12.106,0,21.957,9.782,21.957,21.806C89.879,411.673,80.028,421.455,67.922,421.455z M453.385,492
		H433.44v-51.749c3.199,0.78,6.537,1.203,9.973,1.203c3.438,0,6.775-0.423,9.973-1.203L453.385,492L453.385,492z M443.413,421.455
		c-12.107,0-21.957-9.782-21.957-21.806s9.85-21.806,21.957-21.806s21.957,9.782,21.957,21.806
		C465.37,411.673,455.52,421.455,443.413,421.455z"/>
	<path style="fill:#231F20;" d="M361.94,492c-5.51,0-10,4.49-10,10s4.49,10,10,10c5.52,0,10-4.49,10-10S367.46,492,361.94,492z"/>
	<path style="fill:#231F20;" d="M10.5,141.917h142.806c5.522,0,10-4.477,10-10V11.651c0-5.523-4.478-10-10-10H10.5
		c-5.523,0-10,4.477-10,10v120.267C0.5,137.44,4.977,141.917,10.5,141.917z M20.5,21.651h122.806v100.267H20.5V21.651z"/>
	<path style="fill:#231F20;" d="M502,0H196.747c-5.523,0-10,4.477-10,10v153.398c0,5.523,4.477,10,10,10H502c5.523,0,10-4.477,10-10
		V10C512,4.477,507.524,0,502,0z M492,153.398H206.747V20H492V153.398z"/>
	<path style="fill:#231F20;" d="M112.424,41.321H51.381c-5.523,0-10,4.477-10,10v39.757c0,5.523,4.477,10,10,10h61.043
		c5.524,0,10-4.477,10-10V51.321C122.424,45.798,117.947,41.321,112.424,41.321z M102.424,81.078H61.381V61.321h41.043
		C102.424,61.321,102.424,81.078,102.424,81.078z"/>
	<path style="fill:#231F20;" d="M10.5,332.926h142.806c5.522,0,10-4.477,10-10V172.841c0-5.523-4.478-10-10-10H10.5
		c-5.523,0-10,4.477-10,10v150.085C0.5,328.448,4.977,332.926,10.5,332.926z M20.5,182.841h122.806v130.085H20.5V182.841z"/>
	<path style="fill:#231F20;" d="M112.424,202.51H51.381c-5.523,0-10,4.477-10,10v69.576c0,5.523,4.477,10,10,10h61.043
		c5.524,0,10-4.477,10-10V212.51C122.424,206.987,117.947,202.51,112.424,202.51z M102.424,272.086H61.381V222.51h41.043
		C102.424,222.51,102.424,272.086,102.424,272.086z"/>
	<path style="fill:#231F20;" d="M483.969,335.442c5.521,0,10-4.477,10-10V203.175c0-5.523-4.479-10-10-10H362.131
		c-5.522,0-10,4.477-10,10v122.267c0,5.523,4.478,10,10,10L483.969,335.442L483.969,335.442z M372.131,213.175h101.838v102.267
		H372.131V213.175z"/>
	<path style="fill:#231F20;" d="M443.524,233.429h-40.947c-5.521,0-10,4.477-10,10v41.757c0,5.523,4.479,10,10,10h40.947
		c5.522,0,10-4.477,10-10v-41.757C453.524,237.907,449.045,233.429,443.524,233.429z M433.524,275.187h-20.947V253.43h20.947
		V275.187z"/>
	<path style="fill:#231F20;" d="M196.248,363.831h121.836c5.523,0,10-4.477,10-10V203.565c0-5.523-4.477-10-10-10H196.248
		c-5.523,0-10,4.477-10,10v150.267C186.248,359.354,190.725,363.831,196.248,363.831z M206.248,213.565h101.836v130.267H206.248
		V213.565z"/>
	<path style="fill:#231F20;" d="M277.639,233.234h-40.946c-5.523,0-10,4.477-10,10v69.758c0,5.523,4.477,10,10,10h40.946
		c5.523,0,10-4.477,10-10v-69.758C287.639,237.711,283.163,233.234,277.639,233.234z M267.639,302.992h-20.946v-49.758h20.946
		V302.992z"/>
	<path style="fill:#231F20;" d="M239.689,131.073h219.202c5.523,0,10-4.477,10-10V52.321c0-5.523-4.477-10-10-10H239.689
		c-5.523,0-10,4.477-10,10v68.753C229.689,126.596,234.166,131.073,239.689,131.073z M249.689,62.321h199.202v48.753H249.689V62.321
		z"/>
</g>
<g>
</g>
<g>
</g>
<g>
</g>
<g>
</g>
<g>
</g>
<g>
</g>
<g>
</g>
<g>
</g>
<g>
</g>
<g>
</g>
<g>
</g>
<g>
</g>
<g>
</g>
<g>
</g>
<g>
</g>
</svg>
